<svg xmlns="http://www.w3.org/2000/svg" width="367.061" height="400.01" viewBox="0 0 367.061 400.01">
  <g id="Payscout" transform="translate(-63.81 -50)">
    <g id="icon">
      <path id="Path_1888" data-name="Path 1888" d="M247.09,151.17h0a29.441,29.441,0,0,0-10.98,2.89c-18.81,8.3-54.87,30.79-67.47,41.27-8.03,6.76-9.9,9.72-10.7,20.21-.71,9.42-1.19,20.89-1.27,30.7h-.03v51.7c-54.58-30.11-86.46-74.36-89.01-127.79.06-.44.15-.86.24-1.27,2.31-12.62,7.35-18.64,20.24-29.45,10.31-8.62,28.39-21.19,48.8-34.22C187.86,114.11,229.17,136.43,247.09,151.17Z" fill="#388ce0"/>
      <path id="Path_1889" data-name="Path 1889" d="M430.87,250v.03c0,20.83-.98,46.93-2.55,68.27-14.95-31.35-31.99-60.9-62.92-87.81-11.61-10.1-24.59-21.69-36.1-32.28-.95-.89-2.01-1.84-3.26-2.87-12.56-10.49-48.62-32.98-67.44-41.27a35.793,35.793,0,0,0-6.46-2.28,21.31,21.31,0,0,0-2.55-.44c-.74-.09-1.73-.13-2.51-.16h0c6.23-7.01,49.84-25.17,75.41-30.83a181.091,181.091,0,0,1,52.01-4.21c13.33,8.92,24.71,17.13,32.06,23.29,16.3,13.63,20.03,19.61,21.66,40.86C429.86,201.85,430.87,228.7,430.87,250Z" fill="#3ac9db"/>
      <path id="Path_1890" data-name="Path 1890" d="M374.51,116.13a365.905,365.905,0,0,0-48.77,7.35c-25.57,5.66-52.53,15.76-76.44,26.7-.68.33-1.53.67-2.21.99h0c-.15,0,.12-.03,0,0A579.607,579.607,0,0,0,136.91,105.2c29.99-19.17,65.01-39.35,87.67-49.33,9.66-4.27,16.09-5.78,22.76-5.87,6.7.09,13.13,1.6,22.79,5.87,5.84,2.58,12.5,5.84,19.67,9.57,24.71,12.86,55.56,31.41,80.56,47.94C371.76,114.3,373.15,115.21,374.51,116.13Z" fill="#2770c4"/>
      <path id="Path_1891" data-name="Path 1891" d="M428.32,318.3c-.03.47-.06.98-.09,1.45-.3,3.64-.65,6.84-1.1,9.72-2.19,13.78-7.08,19.85-20.56,31.14-1.69,1.42-3.61,2.96-5.72,4.56-22.49,17.36-66.46,45.33-101.78,64.47,5.7-41.62,17.45-78.6,27.34-108.43,2.04-11.91,9.22-22.83,10.08-34.26.09-.77.18-1.6.24-2.49.83-10.64,1.33-23.91,1.33-34.43V250c0-5.45-.15-11.61-.39-17.78-.24-5.78-.53-11.53-.95-16.68-.68-8.89-2.1-12.39-7.44-17.33a352.262,352.262,0,0,1,38.1,28.36C398.33,253.47,420.88,284.1,428.32,318.3Z" fill="#2770c4"/>
      <path id="Path_1892" data-name="Path 1892" d="M336.5,286.95c-.86,11.44-2.4,23.2-4.44,35.11a460.231,460.231,0,0,1-32.98,107.59c-2.61,1.42-5.19,2.79-7.67,4.12-7.79,4.06-15.02,7.61-21.27,10.37-2.49,1.1-4.77,2.01-6.9,2.79a47.446,47.446,0,0,1-15.88,3.08c-6.67-.09-13.1-1.6-22.76-5.87-5.54-2.43-11.44-5.3-18.22-8.83V329.91c11.08,6.64,21.75,12.53,29.75,16.06a41.9,41.9,0,0,0,5.69,2.07,21.181,21.181,0,0,0,5.54.8c3.32-.03,6.49-.8,11.26-2.87,1.99-.89,4.18-1.93,6.49-3.08a452.478,452.478,0,0,0,40.27-23.53c1.27-.83,2.52-1.63,3.7-2.43a202.993,202.993,0,0,0,16.98-12.27C333.41,298.5,335.58,295.48,336.5,286.95Z" fill="#388ce0"/>
      <path id="Path_1893" data-name="Path 1893" d="M156.64,297.94V407.13c-28-17.07-54.99-35.23-68.53-46.52-9.6-8.06-14.81-13.45-17.84-20.89-2.1-5.16-3.14-11.29-3.79-19.97-1.63-21.57-2.67-48.41-2.67-69.72V250c0-21.3,1.04-48.15,2.67-69.72.3-3.85.65-7.17,1.16-10.13C73.53,223.13,111.19,264.58,156.64,297.94Z" fill="#3ac9db"/>
    </g>
  </g>
</svg>
